<?xml version="1.0" encoding="UTF-8"?> <svg xmlns="http://www.w3.org/2000/svg" id="Layer_1" data-name="Layer 1" viewBox="0 0 293.57 67.6"><defs><style>.cls-1,.cls-4{fill:#003153;}.cls-2{fill:#ffca38;}.cls-3{fill:#f04f23;opacity:0.83;}.cls-4,.cls-5{opacity:0.85;}.cls-5{fill:#00a79d;}</style></defs><path class="cls-1" d="M333.24,375c0,6.8-5,11.42-12.36,11.42h-9.6V363.57h9.83C328.33,363.57,333.24,368.19,333.24,375Zm-6.08.06c0-3.94-2.57-6.6-6.18-6.6h-3.74v13.14h4C324.72,381.56,327.16,378.93,327.16,375Z" transform="translate(-241.76 -341.99)"></path><path class="cls-1" d="M352.79,379.12H340.56a4,4,0,0,0,4,3.09,5.83,5.83,0,0,0,4.13-1.79l3,3a9.92,9.92,0,0,1-7.68,3.12c-5.76,0-9.3-3.55-9.3-8.91s3.67-9.08,9.17-9.08C350.06,368.58,353.18,372.71,352.79,379.12ZM347.2,376a3.14,3.14,0,0,0-3.26-3.38c-1.88,0-3.12,1.36-3.51,3.38Z" transform="translate(-241.76 -341.99)"></path><path class="cls-1" d="M361.7,362.24v24.14h-5.79V362.24Z" transform="translate(-241.76 -341.99)"></path><path class="cls-1" d="M372,368.77v17.61h-5.76V368.77Zm-.23-4.94a2.64,2.64,0,1,1-2.64-2.67A2.54,2.54,0,0,1,371.79,363.83Z" transform="translate(-241.76 -341.99)"></path><path class="cls-1" d="M380,368.77,383.66,381l3.71-12.24h5.79l-6.6,17.61h-6L374,368.77Z" transform="translate(-241.76 -341.99)"></path><path class="cls-1" d="M411.15,379.12H398.92a3.94,3.94,0,0,0,4,3.09,5.83,5.83,0,0,0,4.13-1.79l3,3a9.92,9.92,0,0,1-7.68,3.12c-5.76,0-9.31-3.55-9.31-8.91s3.68-9.08,9.18-9.08C408.42,368.58,411.54,372.71,411.15,379.12Zm-5.6-3.09a3.14,3.14,0,0,0-3.25-3.38c-1.89,0-3.12,1.36-3.51,3.38Z" transform="translate(-241.76 -341.99)"></path><path class="cls-1" d="M425.56,368.55v5.3c-3.22-.33-5.37,1.11-5.66,3.55v9h-5.79V368.77h5.79v2.93A6.34,6.34,0,0,1,425.56,368.55Z" transform="translate(-241.76 -341.99)"></path><path class="cls-1" d="M433.84,363.57v9.3h9.21v-9.3H449v22.81h-5.95v-8.76h-9.21v8.76h-5.95V363.57Z" transform="translate(-241.76 -341.99)"></path><path class="cls-1" d="M470,379.12H457.78a4,4,0,0,0,4,3.09,5.85,5.85,0,0,0,4.14-1.79l3,3a9.91,9.91,0,0,1-7.68,3.12c-5.75,0-9.3-3.55-9.3-8.91s3.68-9.08,9.17-9.08C467.28,368.58,470.41,372.71,470,379.12Zm-5.6-3.09a3.14,3.14,0,0,0-3.25-3.38c-1.89,0-3.13,1.36-3.52,3.38Z" transform="translate(-241.76 -341.99)"></path><path class="cls-1" d="M488.59,374.92v11.46H482.9v-2a6.38,6.38,0,0,1-5.31,2.25c-3.77,0-6-2.28-6-5.5s2.38-5.27,6.74-5.34h4.59v-.19c0-1.66-1.14-2.64-3.35-2.64a12.93,12.93,0,0,0-5.28,1.4l-1.59-3.9a19.34,19.34,0,0,1,8.2-1.92C485.73,368.55,488.56,370.89,488.59,374.92Zm-5.69,5.5v-1.53h-3.45c-1.63,0-2.44.59-2.44,1.82s.88,2,2.37,2A3.47,3.47,0,0,0,482.9,380.42Z" transform="translate(-241.76 -341.99)"></path><path class="cls-1" d="M498.41,362.24v24.14h-5.79V362.24Z" transform="translate(-241.76 -341.99)"></path><path class="cls-1" d="M514.42,385.46a9.69,9.69,0,0,1-4.75,1.18c-3.42,0-5.89-2-5.89-5.63v-7.55h-2.44v-3.84h2.44v-4.88h5.76v4.88h4.55v3.84h-4.55v6.64c0,1.3.58,1.88,1.59,1.85a6.17,6.17,0,0,0,2.18-.58Z" transform="translate(-241.76 -341.99)"></path><path class="cls-1" d="M535.33,375.28v11.1h-5.79v-9.44c0-2-1.13-3.22-3-3.22-2.15,0-3.45,1.66-3.45,4v8.69h-5.79V362.24h5.79v9.4a6.48,6.48,0,0,1,5.83-3.09C532.8,368.55,535.33,371.15,535.33,375.28Z" transform="translate(-241.76 -341.99)"></path><circle class="cls-2" cx="13.24" cy="33.79" r="13.24"></circle><circle class="cls-3" cx="22.48" cy="18.54" r="18.54"></circle><circle class="cls-4" cx="37.73" cy="33.79" r="18.5"></circle><circle class="cls-5" cx="22.43" cy="49.01" r="18.59"></circle></svg> 